<svg width="665" height="834" overflow="visible" viewBox="-59.85 -58.38 784.7 950.76" fill="none" xmlns="http://www.w3.org/2000/svg">
<style>
@media (prefers-reduced-motion: reduce) {
  [id="Group 40"], [id="Group 39"], [id="Group 38"], [id="Group 37"],
  [id="Vector 77"], [id="Vector 78"], [id="Vector 73"], [id="Vector 75"], [id="Vector 55"],
  [id="Ellipse 22"], [id="Ellipse 23"], [id="Star 3"], [id="Star 4"],
  [id="Rectangle 32"], [id="Rectangle 33"], [id="Rectangle 34"], [id="Rectangle 35"],
  [id="Ellipse 8"], [id="Ellipse 9"], [id="Ellipse 12"], [id="Ellipse 13"] { animation: none !important; }
}
[id="Group 40"], [id="Group 39"], [id="Group 38"], [id="Group 37"],
[id="Vector 77"], [id="Vector 78"], [id="Vector 73"], [id="Vector 75"], [id="Vector 55"],
[id="Ellipse 22"], [id="Ellipse 23"], [id="Star 3"], [id="Star 4"],
[id="Rectangle 32"], [id="Rectangle 33"], [id="Rectangle 34"], [id="Rectangle 35"],
[id="Ellipse 8"], [id="Ellipse 9"], [id="Ellipse 12"], [id="Ellipse 13"] {
  transform-box: fill-box;
}
[id="Group 40"], [id="Group 38"] { transform-origin: 85% 90%; animation: earL 2.7s ease-in-out infinite; }
[id="Group 39"], [id="Group 37"] { transform-origin: 15% 90%; animation: earR 2.7s ease-in-out infinite .18s; }
[id="Vector 77"], [id="Vector 73"] { transform-origin: 100% 30%; animation: armL 2.4s ease-in-out infinite; }
[id="Vector 78"], [id="Vector 75"] { transform-origin: 0% 30%; animation: armR 2.4s ease-in-out infinite .12s; }
[id="Vector 55"] { transform-origin: 0% 50%; animation: tail 2.1s ease-in-out infinite; }
[id="Ellipse 22"], [id="Ellipse 23"] { transform-origin: 50% 50%; animation: blink 4.4s ease-in-out infinite; }
[id="Star 3"] { transform-origin: 50% 50%; animation: twinkle 2.2s ease-in-out infinite; }
[id="Star 4"] { transform-origin: 50% 50%; animation: twinkle 2.2s ease-in-out infinite .35s; }
[id="Rectangle 32"], [id="Ellipse 8"], [id="Rectangle 34"], [id="Ellipse 12"] { transform-origin: center bottom; animation: antennaBob 2.3s ease-in-out infinite; }
[id="Rectangle 33"], [id="Ellipse 9"], [id="Rectangle 35"], [id="Ellipse 13"] { transform-origin: center bottom; animation: antennaBob 2.3s ease-in-out infinite .16s; }
@keyframes earL { 0%,100% { transform: rotate(0deg); } 50% { transform: rotate(-9deg); } }
@keyframes earR { 0%,100% { transform: rotate(0deg); } 50% { transform: rotate(9deg); } }
@keyframes armL { 0%,100% { transform: rotate(0deg); } 40% { transform: rotate(-12deg); } 70% { transform: rotate(8deg); } }
@keyframes armR { 0%,100% { transform: rotate(0deg); } 40% { transform: rotate(12deg); } 70% { transform: rotate(-8deg); } }
@keyframes tail { 0%,100% { transform: rotate(0deg); } 50% { transform: rotate(14deg); } }
@keyframes blink { 0%,88%,96%,100% { transform: scaleY(1); } 92% { transform: scaleY(0.08); } }
@keyframes twinkle { 0%,100% { transform: scale(1); opacity: 1; } 50% { transform: scale(0.72); opacity: .45; } }
@keyframes antennaBob { 0%,100% { transform: translateY(0); } 50% { transform: translateY(-7px); } }
</style>

<g id="Maskot">
<g id="Group 51">
<path id="Vector 55" d="M298.151 724.083L297.5 723.83L284 746.33C364.4 806.73 478.5 782.83 534.5 717.33C562.275 684.843 588 694.33 638 694.33C685.5 687.33 657.667 651.663 638 640.33C592.8 616.33 542.833 666.33 523.5 694.33C467.245 789.913 348.206 743.57 298.151 724.083Z" fill="url(#paint0_linear_0_1)"/>
<path id="Vector 46" d="M31.8664 579.177C45.3508 569.148 146.404 519.115 196.242 506C232.001 513.406 351.92 509.343 407.409 506.386C414.808 506.386 459.473 525.673 480.881 535.317C497.322 542.723 554.159 567.17 585.5 588C609.718 621.612 558.463 661.841 531.232 663.384C516.435 665.853 487.389 658.241 474.715 654.126C476.771 660.298 481.395 684.215 483.45 695.401C493.315 757.121 487.046 826.026 428.474 831.955C391.893 835.658 355.002 833.498 341.13 831.955C327.155 831.03 307.22 777.179 307.22 747.477H298.999C300.233 782.966 279.062 819.997 261.493 831.955H231.62H201.747C169.139 831.955 152.741 825.012 145.89 819.997C128.216 812.282 120.029 773.836 118.146 755.578C114.035 729.964 123.283 677.271 134.073 652.969C120.92 656.981 93.9974 663.384 79.0975 663.384C52.7915 664.619 28.4036 642.297 19.498 630.982C4.70083 601.665 13.37 588.821 31.8664 579.177Z" fill="url(#paint1_linear_0_1)"/>
<g id="Group 40">
<path id="Vector 43" d="M55.7772 20.6048L225.405 136.644C237.24 144.74 236.961 162.293 224.874 170.009L47.9574 282.946C34.4015 291.599 16.6944 281.526 17.2061 265.451L24.4951 36.4757C24.9976 20.6892 42.7411 11.6871 55.7772 20.6048Z" fill="url(#paint2_linear_0_1)"/>
<path id="Vector 44" d="M77.9076 74.6052L157.482 129.041C169.318 137.137 169.038 154.69 156.952 162.406L73.9576 215.386C60.4016 224.039 42.6945 213.966 43.2062 197.892L46.6256 90.476C47.1281 74.6895 64.8715 65.6874 77.9076 74.6052Z" fill="url(#paint3_linear_0_1)"/>
</g>
<g id="Group 39">
<path id="Vector 42" d="M560.782 23.8948L385.216 130.736C372.966 138.191 372.311 155.734 383.969 164.082L554.621 286.28C567.697 295.643 585.916 286.527 586.26 270.448L591.175 41.4089C591.513 25.618 574.275 15.6839 560.782 23.8948Z" fill="url(#paint4_linear_0_1)"/>
<path id="Vector 45" d="M534.342 74.6052L454.767 129.041C442.932 137.137 443.211 154.69 455.298 162.406L538.292 215.386C551.848 224.039 569.555 213.966 569.043 197.892L565.624 90.476C565.121 74.6895 547.378 65.6874 534.342 74.6052Z" fill="url(#paint5_linear_0_1)"/>
</g>
<ellipse id="Ellipse 5" cx="301.5" cy="365.5" rx="301.5" ry="232.5" fill="url(#paint6_linear_0_1)"/>
<path id="Ellipse 6" d="M552 396.523C552 486.632 440.743 559.681 303.5 559.681C166.257 559.681 55 486.632 55 396.523C55 306.413 128 213.418 303.5 290.138C456 219.044 552 306.413 552 396.523Z" fill="white"/>
<rect id="Rectangle 32" x="236" y="75" width="13" height="70" rx="6.5" fill="#20F4AA"/>
<rect id="Rectangle 33" x="343" y="75" width="13" height="70" rx="6.5" fill="#20F4AA"/>
<g id="Group 27">
<path id="Vector 49" d="M258.49 428.73C219.99 361.729 142.49 356.23 114.08 391.209C111.281 430.924 181.99 483.729 258.49 428.73Z" fill="black"/>
<path id="Star 1" d="M148 377L152.393 392.392L167.919 388.5L156.785 400L167.919 411.5L152.393 407.608L148 423L143.607 407.608L128.081 411.5L139.215 400L128.081 388.5L143.607 392.392L148 377Z" fill="#E9FF1C"/>
</g>
<g id="Group 26">
<path id="Vector 50" d="M347 428.73C385.5 361.729 463 356.23 491.41 391.209C494.209 430.924 423.5 483.729 347 428.73Z" fill="black"/>
<path id="Star 2" d="M459 377L454.607 392.392L439.081 388.5L450.215 400L439.081 411.5L454.607 407.608L459 423L463.393 407.608L478.919 411.5L467.785 400L478.919 388.5L463.393 392.392L459 377Z" fill="#E9FF1C"/>
</g>
<g id="Group 28">
<path id="Vector 47" d="M258 482C272 503.5 300.5 492 304 483C307.5 491 333 503.5 347.5 483" stroke="#E9A3A4" stroke-width="4" stroke-linecap="round"/>
<ellipse id="Ellipse 7" cx="304" cy="468.5" rx="21" ry="11.5" fill="#FF96BA"/>
</g>
<circle id="Ellipse 8" cx="241.5" cy="66.5" r="19.5" fill="#20F4AA"/>
<circle id="Ellipse 9" cx="349.5" cy="66.5" r="19.5" fill="#20F4AA"/>
</g>
</g>
<defs>
<linearGradient id="paint0_linear_0_1" x1="474.031" y1="634" x2="474.031" y2="773.756" gradientUnits="userSpaceOnUse">
<stop stop-color="#32A7F6"/>
<stop offset="1" stop-color="#20F4AA"/>
</linearGradient>
<linearGradient id="paint1_linear_0_1" x1="302" y1="733.316" x2="302" y2="387.152" gradientUnits="userSpaceOnUse">
<stop stop-color="#20F4AA"/>
<stop offset="1" stop-color="#2C3AFE"/>
</linearGradient>
<linearGradient id="paint2_linear_0_1" x1="136" y1="221" x2="33.4998" y2="26.9997" gradientUnits="userSpaceOnUse">
<stop stop-color="#20F4AA"/>
<stop offset="1" stop-color="#32A7F6"/>
</linearGradient>
<linearGradient id="paint3_linear_0_1" x1="116.518" y1="56.188" x2="110.731" y2="237.974" gradientUnits="userSpaceOnUse">
<stop stop-color="#32A7F6"/>
<stop offset="1" stop-color="#04AF73"/>
</linearGradient>
<linearGradient id="paint4_linear_0_1" x1="474" y1="230" x2="592" y2="21" gradientUnits="userSpaceOnUse">
<stop stop-color="#20F4AA"/>
<stop offset="1" stop-color="#32A7F6"/>
</linearGradient>
<linearGradient id="paint5_linear_0_1" x1="495.731" y1="56.188" x2="501.518" y2="237.974" gradientUnits="userSpaceOnUse">
<stop stop-color="#32A7F6"/>
<stop offset="1" stop-color="#04AF73"/>
</linearGradient>
<linearGradient id="paint6_linear_0_1" x1="301.5" y1="133" x2="301.5" y2="598" gradientUnits="userSpaceOnUse">
<stop stop-color="#20F4AA"/>
<stop offset="1" stop-color="#32A7F6"/>
</linearGradient>
</defs>
</svg>
